<svg
  viewBox="17 19 42 42"
  xmlns="http://www.w3.org/2000/svg"
  aria-hidden="true"
>
  <g transform="translate(-13.333471,-13.333201)">
    <path
      d="m 0,0 -10.647,-11.3 c 10e-4,-0.002 10e-4,-0.005 0.002,-0.007 0.327,-1.227 1.447,-2.13 2.777,-2.13 0.532,0 1.031,0.144 1.459,0.396 l 0.034,0.02 11.984,6.915 z"
      fill="#ea4335"
      transform="matrix(1.3333333,0,0,-1.3333333,40.9564,39.232133)"
    />
    <path
      d="m 0,0 -0.01,0.007 -5.174,2.999 -5.829,-5.187 5.85,-5.848 5.146,2.969 c 0.902,0.488 1.515,1.439 1.515,2.535 C 1.498,-1.435 0.894,-0.489 0,0"
      fill="#fbbc04"
      transform="matrix(1.3333333,0,0,-1.3333333,55.3176,36.666533)"
    />
    <path
      d="m 0,0 c -0.064,-0.236 -0.098,-0.484 -0.098,-0.74 v -19.968 c 0,-0.256 0.034,-0.504 0.099,-0.739 l 11.012,11.011 z"
      fill="#4285f4"
      transform="matrix(1.3333333,0,0,-1.3333333,26.760133,25.7028)"
    />
    <path
      d="m 0,0 5.51,5.509 -11.97,6.94 c -0.435,0.261 -0.943,0.411 -1.486,0.411 -1.33,0 -2.452,-0.905 -2.779,-2.133 0,-10e-4 -0.001,-0.002 -0.001,-0.003 z"
      fill="#34a853"
      transform="matrix(1.3333333,0,0,-1.3333333,41.0612,40.0012)"
    />
  </g>
</svg>
